<svg width="16" height="16" viewBox="0 0 16 16" fill="none" xmlns="http://www.w3.org/2000/svg">
<g clip-path="url(#clip0_1229_25488)">
<path d="M9.99957 6.50074H9.49961V5.50082C9.49961 4.39791 8.60268 3.50098 7.49977 3.50098C6.39685 3.50098 5.49992 4.39791 5.49992 5.50082V6.50074H4.99996C4.72398 6.50074 4.5 6.72472 4.5 7.0007V11.0004C4.5 11.2764 4.72398 11.5004 4.99996 11.5004H9.99957C10.2755 11.5004 10.4995 11.2764 10.4995 11.0004V7.0007C10.4995 6.72472 10.2755 6.50074 9.99957 6.50074ZM6.49984 5.50082C6.49984 4.94986 6.94781 4.5009 7.49977 4.5009C8.05172 4.5009 8.49969 4.94986 8.49969 5.50082V6.50074H6.49984V5.50082ZM9.49961 10.5004H5.49992V7.50066H9.49961V10.5004Z" fill="#4B5563"/>
<path d="M15.6858 5.03662C15.4288 4.93363 15.1378 5.05862 15.0368 5.3156L14.7378 6.06354C13.8789 2.86479 10.9641 0.500977 7.49941 0.500977C3.36374 0.500977 0 3.86471 0 8.00039C0 12.1361 3.36374 15.4998 7.49941 15.4998C9.50226 15.4998 11.3851 14.7199 12.803 13.303C12.998 13.108 12.998 12.791 12.803 12.596C12.608 12.401 12.291 12.401 12.0961 12.596C10.8672 13.8239 9.23428 14.4999 7.49941 14.4999C3.91569 14.4999 0.999922 11.5841 0.999922 8.00039C0.999922 4.41667 3.91569 1.5009 7.49941 1.5009C10.6202 1.5009 13.233 3.71273 13.8559 6.6505L12.853 5.64657C12.658 5.45159 12.341 5.45159 12.1461 5.64657C11.9511 5.84156 11.9511 6.15853 12.1461 6.35352L14.1459 8.35336C14.1569 8.36436 14.1719 8.36836 14.1839 8.37836C14.2219 8.41036 14.2609 8.44136 14.3069 8.46035C14.3669 8.48735 14.4329 8.50035 14.4989 8.50035C14.5319 8.50035 14.5659 8.49735 14.5999 8.49035C14.6139 8.48735 14.6239 8.47635 14.6369 8.47235C14.6879 8.45735 14.7338 8.43436 14.7768 8.40536C14.7958 8.39236 14.8148 8.38336 14.8318 8.36836C14.8868 8.31837 14.9328 8.25937 14.9618 8.18938C14.9618 8.18838 14.9628 8.18738 14.9638 8.18638L15.9638 5.68657C16.0667 5.43059 15.9428 5.13961 15.6858 5.03662Z" fill="#4B5563"/>
</g>
<defs>
<clipPath id="clip0_1229_25488">
<rect width="16" height="16" fill="white"/>
</clipPath>
</defs>
</svg>
