<svg width="35" height="34" viewBox="0 0 35 34" fill="none" xmlns="http://www.w3.org/2000/svg">
<g clip-path="url(#clip0_1161_21294)">
<path fill-rule="evenodd" clip-rule="evenodd" d="M9.86275 2.85175C11.9866 1.02029 14.6955 0.00879434 17.5 0C23.2162 0 27.9614 4.25 28.4778 9.73038C31.8608 10.2085 34.5 13.0411 34.5 16.5176C34.5 20.3341 31.3168 23.375 27.4599 23.375H21.75C21.4682 23.375 21.198 23.2631 20.9987 23.0638C20.7994 22.8645 20.6875 22.5943 20.6875 22.3125C20.6875 22.0307 20.7994 21.7605 20.9987 21.5612C21.198 21.3619 21.4682 21.25 21.75 21.25H27.462C30.2054 21.25 32.375 19.0995 32.375 16.5176C32.375 13.9336 30.2075 11.7831 27.4599 11.7831H26.3974V10.7206C26.3995 6.00313 22.447 2.125 17.5 2.125C15.2047 2.13417 12.9883 2.96317 11.2504 4.4625C9.64175 5.848 8.80025 7.51825 8.80025 8.82938V9.78137L7.85462 9.8855C4.886 10.2106 2.625 12.648 2.625 15.5507C2.625 18.6681 5.23875 21.25 8.53463 21.25H13.25C13.5318 21.25 13.802 21.3619 14.0013 21.5612C14.2006 21.7605 14.3125 22.0307 14.3125 22.3125C14.3125 22.5943 14.2006 22.8645 14.0013 23.0638C13.802 23.2631 13.5318 23.375 13.25 23.375H8.53463C4.1295 23.375 0.5 19.9028 0.5 15.5507C0.5 11.8044 3.19025 8.70187 6.75175 7.91562C7.05562 6.08175 8.235 4.25425 9.86275 2.85175Z" fill="#8C979A"/>
<path fill-rule="evenodd" clip-rule="evenodd" d="M16.7481 8.8102C16.8468 8.71125 16.9641 8.63275 17.0931 8.57918C17.2222 8.52562 17.3606 8.49805 17.5004 8.49805C17.6401 8.49805 17.7785 8.52562 17.9076 8.57918C18.0367 8.63275 18.1539 8.71125 18.2526 8.8102L24.6276 15.1852C24.8271 15.3847 24.9392 15.6553 24.9392 15.9374C24.9392 16.2196 24.8271 16.4902 24.6276 16.6897C24.4281 16.8892 24.1575 17.0013 23.8754 17.0013C23.5932 17.0013 23.3226 16.8892 23.1231 16.6897L18.5629 12.1273V30.8124C18.5629 31.0942 18.4509 31.3645 18.2517 31.5637C18.0524 31.763 17.7822 31.8749 17.5004 31.8749C17.2186 31.8749 16.9483 31.763 16.7491 31.5637C16.5498 31.3645 16.4379 31.0942 16.4379 30.8124V12.1273L11.8776 16.6897C11.6781 16.8892 11.4075 17.0013 11.1254 17.0013C10.8432 17.0013 10.5726 16.8892 10.3731 16.6897C10.1736 16.4902 10.0615 16.2196 10.0615 15.9374C10.0615 15.6553 10.1736 15.3847 10.3731 15.1852L16.7481 8.8102Z" fill="#8C979A"/>
</g>
<defs>
<clipPath id="clip0_1161_21294">
<rect width="34" height="34" fill="white" transform="translate(0.5)"/>
</clipPath>
</defs>
</svg>
