<svg width="60" height="60" viewBox="0 0 60 60" fill="none" xmlns="http://www.w3.org/2000/svg">
<rect width="60" height="60" rx="30" fill="#D7B875"/>
<g clip-path="url(#clip0_636_15020)">
<path d="M45.0619 44.125H44.0619V28.1879C44.0619 27.9911 44 27.7994 43.8849 27.6397C43.7699 27.4801 43.6075 27.3607 43.4208 27.2985L32.8121 23.7623V20.5631C32.8121 20.1723 32.5697 19.8225 32.2038 19.6853L17.2042 14.0604C16.5919 13.8308 15.9375 14.2842 15.9375 14.9382V44.1251H14.9375C14.4197 44.1251 14 44.5448 14 45.0626C14 45.5803 14.4197 46.0001 14.9375 46.0001H45.0619C45.5796 46.0001 45.9994 45.5803 45.9994 45.0626C45.9994 44.5448 45.5796 44.125 45.0619 44.125ZM23.4373 44.125H21.5624V40.3751H23.4373V44.125ZM27.1873 44.125H25.3123V40.3751H27.1873V44.125ZM30.9372 24.438V44.125H29.0623V39.4377C29.0623 38.9199 28.6425 38.5002 28.1248 38.5002H20.6249C20.1071 38.5002 19.6874 38.9199 19.6874 39.4377V44.125H17.8124V16.291L30.9372 21.2127V24.438ZM38.437 44.125H36.5621V40.3751H38.437V44.125ZM42.1869 44.125H40.312V39.4377C40.312 38.9199 39.8923 38.5002 39.3745 38.5002H35.6246C35.1068 38.5002 34.6871 38.9199 34.6871 39.4377V44.125H32.8121V25.7387L42.1869 28.8636V44.125Z" fill="#F9FAFB"/>
<path d="M22.4999 34.7502H20.625C20.1072 34.7502 19.6875 35.17 19.6875 35.6877C19.6875 36.2055 20.1072 36.6252 20.625 36.6252H22.4999C23.0177 36.6252 23.4374 36.2055 23.4374 35.6877C23.4374 35.17 23.0177 34.7502 22.4999 34.7502ZM28.1248 34.7502H26.2499C25.7321 34.7502 25.3124 35.17 25.3124 35.6877C25.3124 36.2055 25.7321 36.6252 26.2499 36.6252H28.1248C28.6426 36.6252 29.0623 36.2055 29.0623 35.6877C29.0623 35.17 28.6426 34.7502 28.1248 34.7502ZM22.4999 31.0004H20.625C20.1072 31.0004 19.6875 31.4201 19.6875 31.9379C19.6875 32.4556 20.1072 32.8754 20.625 32.8754H22.4999C23.0177 32.8754 23.4374 32.4556 23.4374 31.9379C23.4374 31.4201 23.0177 31.0004 22.4999 31.0004ZM28.1248 31.0004H26.2499C25.7321 31.0004 25.3124 31.4201 25.3124 31.9379C25.3124 32.4556 25.7321 32.8754 26.2499 32.8754H28.1248C28.6426 32.8754 29.0623 32.4556 29.0623 31.9379C29.0623 31.4201 28.6426 31.0004 28.1248 31.0004ZM39.3746 34.7502H35.6246C35.1069 34.7502 34.6871 35.17 34.6871 35.6877C34.6871 36.2055 35.1068 36.6252 35.6246 36.6252H39.3746C39.8923 36.6252 40.3121 36.2055 40.3121 35.6877C40.3121 35.17 39.8923 34.7502 39.3746 34.7502ZM39.3746 31.0004H35.6246C35.1069 31.0004 34.6871 31.4201 34.6871 31.9379C34.6871 32.4556 35.1068 32.8754 35.6246 32.8754H39.3746C39.8923 32.8754 40.3121 32.4556 40.3121 31.9379C40.3121 31.4201 39.8923 31.0004 39.3746 31.0004ZM22.4999 27.2504H20.625C20.1072 27.2504 19.6875 27.6702 19.6875 28.1879C19.6875 28.7057 20.1072 29.1254 20.625 29.1254H22.4999C23.0177 29.1254 23.4374 28.7057 23.4374 28.1879C23.4374 27.6702 23.0177 27.2504 22.4999 27.2504ZM28.1248 27.2504H26.2499C25.7321 27.2504 25.3124 27.6702 25.3124 28.1879C25.3124 28.7057 25.7321 29.1254 26.2499 29.1254H28.1248C28.6426 29.1254 29.0623 28.7057 29.0623 28.1879C29.0623 27.6702 28.6426 27.2504 28.1248 27.2504ZM22.4999 23.5005H20.625C20.1072 23.5005 19.6875 23.9202 19.6875 24.438C19.6875 24.9557 20.1072 25.3755 20.625 25.3755H22.4999C23.0177 25.3755 23.4374 24.9557 23.4374 24.438C23.4374 23.9202 23.0177 23.5005 22.4999 23.5005ZM28.1248 23.5005H26.2499C25.7321 23.5005 25.3124 23.9202 25.3124 24.438C25.3124 24.9557 25.7321 25.3755 26.2499 25.3755H28.1248C28.6426 25.3755 29.0623 24.9557 29.0623 24.438C29.0623 23.9202 28.6426 23.5005 28.1248 23.5005Z" fill="#F9FAFB"/>
</g>
<defs>
<clipPath id="clip0_636_15020">
<rect width="32" height="32" fill="white" transform="translate(14 14)"/>
</clipPath>
</defs>
</svg>
