<svg width="20" height="21" viewBox="0 0 20 21" fill="none" xmlns="http://www.w3.org/2000/svg">
<path d="M19.4137 19.1797H18.7887V9.219C18.7887 9.09602 18.75 8.97616 18.6781 8.87639C18.6062 8.77663 18.5047 8.70202 18.388 8.66314L11.7576 6.45298V4.45349C11.7576 4.20923 11.6061 3.9906 11.3774 3.90486L2.00262 0.389313C1.61996 0.245836 1.21094 0.529157 1.21094 0.937946V19.1797H0.585938C0.262344 19.1797 0 19.4421 0 19.7657C0 20.0893 0.262344 20.3516 0.585938 20.3516H19.4137C19.7373 20.3516 19.9996 20.0893 19.9996 19.7657C19.9996 19.4421 19.7373 19.1797 19.4137 19.1797ZM5.89832 19.1797H4.72648V16.836H5.89832V19.1797ZM8.24203 19.1797H7.0702V16.836H8.24203V19.1797ZM10.5857 6.87529V19.1797H9.41391V16.2501C9.41391 15.9265 9.15156 15.6642 8.82797 15.6642H4.14055C3.81695 15.6642 3.55461 15.9265 3.55461 16.2501V19.1797H2.38277V1.78341L10.5857 4.85951V6.87529ZM15.2731 19.1797H14.1013V16.836H15.2731V19.1797ZM17.6168 19.1797H16.445V16.2501C16.445 15.9265 16.1827 15.6642 15.8591 15.6642H13.5154C13.1918 15.6642 12.9294 15.9265 12.9294 16.2501V19.1797H11.7576V7.68822L17.6168 9.6413V19.1797Z" fill="#F9FAFB"/>
<path d="M5.31246 13.3202H4.14062C3.81703 13.3202 3.55469 13.5825 3.55469 13.9061C3.55469 14.2297 3.81699 14.492 4.14062 14.492H5.31246C5.63605 14.492 5.8984 14.2297 5.8984 13.9061C5.8984 13.5825 5.63605 13.3202 5.31246 13.3202ZM8.82801 13.3202H7.65617C7.33258 13.3202 7.07023 13.5825 7.07023 13.9061C7.07023 14.2297 7.33254 14.492 7.65617 14.492H8.82801C9.1516 14.492 9.41395 14.2297 9.41395 13.9061C9.41395 13.5825 9.1516 13.3202 8.82801 13.3202ZM5.31246 10.9765H4.14062C3.81703 10.9765 3.55469 11.2388 3.55469 11.5624C3.55469 11.886 3.81699 12.1484 4.14062 12.1484H5.31246C5.63605 12.1484 5.8984 11.886 5.8984 11.5624C5.8984 11.2388 5.63605 10.9765 5.31246 10.9765ZM8.82801 10.9765H7.65617C7.33258 10.9765 7.07023 11.2388 7.07023 11.5624C7.07023 11.886 7.33254 12.1484 7.65617 12.1484H8.82801C9.1516 12.1484 9.41395 11.886 9.41395 11.5624C9.41395 11.2388 9.1516 10.9765 8.82801 10.9765ZM15.8591 13.3202H13.5154C13.1918 13.3202 12.9295 13.5825 12.9295 13.9061C12.9295 14.2297 13.1918 14.492 13.5154 14.492H15.8591C16.1827 14.492 16.445 14.2297 16.445 13.9061C16.445 13.5825 16.1827 13.3202 15.8591 13.3202ZM15.8591 10.9765H13.5154C13.1918 10.9765 12.9295 11.2388 12.9295 11.5624C12.9295 11.886 13.1918 12.1484 13.5154 12.1484H15.8591C16.1827 12.1484 16.445 11.886 16.445 11.5624C16.445 11.2388 16.1827 10.9765 15.8591 10.9765ZM5.31246 8.63277H4.14062C3.81703 8.63277 3.55469 8.89512 3.55469 9.21871C3.55469 9.5423 3.81699 9.80465 4.14062 9.80465H5.31246C5.63605 9.80465 5.8984 9.5423 5.8984 9.21871C5.89836 8.89512 5.63605 8.63277 5.31246 8.63277ZM8.82801 8.63277H7.65617C7.33258 8.63277 7.07023 8.89512 7.07023 9.21871C7.07023 9.5423 7.33254 9.80465 7.65617 9.80465H8.82801C9.1516 9.80465 9.41395 9.5423 9.41395 9.21871C9.41395 8.89512 9.1516 8.63277 8.82801 8.63277ZM5.31246 6.28906H4.14062C3.81703 6.28906 3.55469 6.55141 3.55469 6.875C3.55469 7.19859 3.81699 7.46094 4.14062 7.46094H5.31246C5.63605 7.46094 5.8984 7.19859 5.8984 6.875C5.89836 6.55141 5.63605 6.28906 5.31246 6.28906ZM8.82801 6.28906H7.65617C7.33258 6.28906 7.07023 6.55141 7.07023 6.875C7.07023 7.19859 7.33254 7.46094 7.65617 7.46094H8.82801C9.1516 7.46094 9.41395 7.19859 9.41395 6.875C9.41395 6.55141 9.1516 6.28906 8.82801 6.28906Z" fill="#F9FAFB"/>
</svg>
