<svg width="20" height="21" viewBox="0 0 20 21" fill="none" xmlns="http://www.w3.org/2000/svg">
<path d="M7.70828 7.66086H1.45828C0.654141 7.66086 0 7.00672 0 6.20242V2.45242C0 1.64828 0.654141 0.994141 1.45828 0.994141H7.70828C8.51258 0.994141 9.16672 1.64828 9.16672 2.45242V6.20242C9.16672 7.00672 8.51258 7.66086 7.70828 7.66086ZM1.45828 2.24414C1.40305 2.24418 1.3501 2.26614 1.31105 2.30519C1.272 2.34424 1.25004 2.39719 1.25 2.45242V6.20242C1.25001 6.25767 1.27195 6.31066 1.31101 6.34974C1.35006 6.38883 1.40303 6.41081 1.45828 6.41086H7.70828C7.76356 6.41084 7.81656 6.38887 7.85565 6.34979C7.89473 6.3107 7.9167 6.2577 7.91672 6.20242V2.45242C7.91667 2.39717 7.89468 2.3442 7.8556 2.30515C7.81652 2.26609 7.76353 2.24415 7.70828 2.24414H1.45828ZM7.70828 20.9941H1.45828C0.654141 20.9941 0 20.34 0 19.5359V10.7859C0 9.98156 0.654141 9.32742 1.45828 9.32742H7.70828C8.51258 9.32742 9.16672 9.98156 9.16672 10.7859V19.5359C9.16672 20.34 8.51258 20.9941 7.70828 20.9941ZM1.45828 10.5774C1.40303 10.5775 1.35006 10.5995 1.31101 10.6385C1.27195 10.6776 1.25001 10.7306 1.25 10.7859V19.5359C1.25004 19.5911 1.272 19.644 1.31105 19.6831C1.3501 19.7221 1.40305 19.7441 1.45828 19.7441H7.70828C7.76353 19.7441 7.81652 19.7222 7.8556 19.6831C7.89468 19.6441 7.91667 19.5911 7.91672 19.5359V10.7859C7.9167 10.7306 7.89473 10.6776 7.85565 10.6385C7.81656 10.5994 7.76356 10.5774 7.70828 10.5774H1.45828ZM18.5417 20.9941H12.2917C11.4874 20.9941 10.8333 20.34 10.8333 19.5359V15.7859C10.8333 14.9816 11.4874 14.3274 12.2917 14.3274H18.5417C19.3459 14.3274 20 14.9816 20 15.7859V19.5359C20 20.34 19.3459 20.9941 18.5417 20.9941ZM12.2917 15.5774C12.2364 15.5774 12.1834 15.5994 12.1444 15.6385C12.1053 15.6776 12.0833 15.7306 12.0833 15.7859V19.5359C12.0833 19.5911 12.1053 19.6441 12.1444 19.6831C12.1835 19.7222 12.2365 19.7441 12.2917 19.7441H18.5417C18.5969 19.7441 18.6499 19.7221 18.689 19.6831C18.728 19.644 18.75 19.5911 18.75 19.5359V15.7859C18.75 15.7306 18.728 15.6776 18.689 15.6385C18.6499 15.5995 18.597 15.5775 18.5417 15.5774H12.2917ZM18.5417 12.6609H12.2917C11.4874 12.6609 10.8333 12.0067 10.8333 11.2024V2.45242C10.8333 1.64828 11.4874 0.994141 12.2917 0.994141H18.5417C19.3459 0.994141 20 1.64828 20 2.45242V11.2024C20 12.0067 19.3459 12.6609 18.5417 12.6609ZM12.2917 2.24414C12.2365 2.24415 12.1835 2.26609 12.1444 2.30515C12.1053 2.3442 12.0833 2.39717 12.0833 2.45242V11.2024C12.0833 11.2577 12.1053 11.3107 12.1444 11.3498C12.1834 11.3889 12.2364 11.4108 12.2917 11.4109H18.5417C18.597 11.4108 18.6499 11.3888 18.689 11.3497C18.728 11.3107 18.75 11.2577 18.75 11.2024V2.45242C18.75 2.39719 18.728 2.34424 18.689 2.30519C18.6499 2.26614 18.5969 2.24418 18.5417 2.24414H12.2917Z" fill="#F9FAFB"/>
</svg>
