<svg width="16" height="16" viewBox="0 0 16 16" fill="none" xmlns="http://www.w3.org/2000/svg">
<g clip-path="url(#clip0_936_25577)">
<path d="M13.625 1.875H11.2812V1.40625C11.2812 0.630844 10.6504 0 9.875 0H6.125C5.34959 0 4.71875 0.630844 4.71875 1.40625V1.875H2.375C1.59959 1.875 0.96875 2.50584 0.96875 3.28125C0.96875 3.904 1.37578 4.43316 1.93766 4.61753L2.77375 14.7105C2.83397 15.4336 3.44953 16 4.17513 16H11.8249C12.5505 16 13.1661 15.4336 13.2263 14.7103L14.0623 4.6175C14.6242 4.43316 15.0312 3.904 15.0312 3.28125C15.0312 2.50584 14.4004 1.875 13.625 1.875ZM5.65625 1.40625C5.65625 1.14778 5.86653 0.9375 6.125 0.9375H9.875C10.1335 0.9375 10.3438 1.14778 10.3438 1.40625V1.875H5.65625V1.40625ZM12.292 14.6327C12.2719 14.8737 12.0667 15.0625 11.8249 15.0625H4.17513C3.93328 15.0625 3.72809 14.8737 3.70806 14.6329L2.88419 4.6875H13.1158L12.292 14.6327ZM13.625 3.75H2.375C2.11653 3.75 1.90625 3.53972 1.90625 3.28125C1.90625 3.02278 2.11653 2.8125 2.375 2.8125H13.625C13.8835 2.8125 14.0938 3.02278 14.0938 3.28125C14.0938 3.53972 13.8835 3.75 13.625 3.75Z" fill="#EF4444"/>
<path d="M6.12413 13.6273L5.65538 6.06477C5.63935 5.80636 5.41569 5.60983 5.15854 5.62592C4.90013 5.64195 4.70366 5.86439 4.71966 6.12277L5.18841 13.6853C5.20382 13.9338 5.41019 14.125 5.65582 14.125C5.92729 14.125 6.14079 13.8964 6.12413 13.6273ZM8.00004 5.62505C7.74116 5.62505 7.53129 5.83492 7.53129 6.0938V13.6563C7.53129 13.9152 7.74116 14.125 8.00004 14.125C8.25891 14.125 8.46879 13.9152 8.46879 13.6563V6.0938C8.46879 5.83492 8.25891 5.62505 8.00004 5.62505ZM10.8415 5.62595C10.5837 5.60992 10.3607 5.80639 10.3447 6.0648L9.87591 13.6273C9.85994 13.8857 10.0564 14.1081 10.3148 14.1241C10.5733 14.1401 10.7956 13.9436 10.8116 13.6853L11.2804 6.1228C11.2964 5.86439 11.0999 5.64195 10.8415 5.62595Z" fill="#EF4444"/>
</g>
<defs>
<clipPath id="clip0_936_25577">
<rect width="16" height="16" fill="white"/>
</clipPath>
</defs>
</svg>
