<svg width="20" height="21" viewBox="0 0 20 21" fill="none" xmlns="http://www.w3.org/2000/svg">
<g clip-path="url(#clip0_749_18278)">
<path d="M16.2656 17.3853C16.0067 17.3853 15.7969 17.1755 15.7969 16.9166V13.5463C15.7496 13.4275 15.5899 13.0921 15.1755 12.706C14.6866 12.2505 13.7378 11.632 11.9943 11.2726C11.9194 11.2571 11.8494 11.2236 11.7905 11.1749C11.7315 11.1262 11.6853 11.0639 11.656 10.9932L11.14 9.75003C11.0408 9.51098 11.1541 9.23673 11.3932 9.1375C11.6323 9.0383 11.9066 9.15166 12.0057 9.39072L12.4277 10.4075C16.1404 11.2528 16.6972 13.265 16.7195 13.3521C16.7293 13.3901 16.7342 13.4292 16.7342 13.4685V16.9167C16.7342 17.1754 16.5244 17.3853 16.2656 17.3853ZM3.73429 17.3853C3.47543 17.3853 3.26562 17.1755 3.26562 16.9166V13.4685C3.26562 13.4292 3.27055 13.3901 3.2803 13.352C3.30262 13.265 3.85941 11.2527 7.57206 10.4074L7.99412 9.39065C8.09335 9.1516 8.36763 9.03834 8.60665 9.13743C8.84574 9.23666 8.95911 9.51091 8.85984 9.74997L8.34382 10.9932C8.3145 11.0638 8.26835 11.1262 8.20939 11.1749C8.15043 11.2236 8.08046 11.2571 8.00557 11.2725C6.26203 11.632 5.31321 12.2504 4.82429 12.706C4.40998 13.092 4.25025 13.4275 4.20296 13.5462V16.9166C4.20299 17.1754 3.99315 17.3853 3.73429 17.3853Z" fill="#F9FAFB"/>
<path d="M10.0001 10.5413C8.38206 10.5413 6.60329 9.25253 6.26731 6.37428C5.76555 4.11651 6.32751 2.24415 7.81107 1.23463C9.12042 0.343665 10.8799 0.343665 12.1892 1.23463C13.6727 2.24415 14.2347 4.11651 13.7329 6.37428C13.3969 9.25253 11.6182 10.5413 10.0001 10.5413ZM10.0001 1.51027C9.41383 1.51027 8.82759 1.67673 8.3384 2.00962C7.18453 2.79479 6.76499 4.31959 7.18729 6.19304C7.19106 6.20962 7.19388 6.2264 7.19578 6.24328C7.45906 8.56485 8.79396 9.60399 10.0001 9.60399C11.2063 9.60399 12.5411 8.56485 12.8044 6.24328C12.8063 6.2264 12.8092 6.20962 12.8129 6.19304C13.2352 4.31959 12.8157 2.79479 11.6618 2.00962C11.1726 1.67673 10.5863 1.51027 10.0001 1.51027Z" fill="#F9FAFB"/>
<path d="M6.65683 6.34489C6.64188 6.34489 6.62687 6.34418 6.61172 6.34275C6.35404 6.31812 6.1651 6.08929 6.18973 5.83158C6.28305 4.85481 6.75511 4.16013 7.59274 3.76691C8.18547 3.48869 8.9541 3.3649 10.0107 3.37787C10.6701 3.38586 11.6351 3.4378 12.3998 3.79555C13.2442 4.19054 13.7187 4.87557 13.81 5.83162C13.8346 6.08929 13.6457 6.31812 13.388 6.34275C13.1307 6.36758 12.9015 6.17843 12.8769 5.92076C12.7702 4.80378 11.9365 4.33862 9.9994 4.31518C8.06664 4.29238 7.23404 4.7569 7.12281 5.92076C7.09965 6.16325 6.89555 6.34489 6.65683 6.34489ZM9.99987 13.7117C9.90088 13.7117 9.80189 13.6804 9.71856 13.6179L6.76554 11.4019C6.55852 11.2465 6.5166 10.9528 6.67198 10.7457C6.82733 10.5387 7.12108 10.4968 7.32817 10.6521L9.99987 12.657L12.6716 10.6521C12.8785 10.4968 13.1724 10.5386 13.3278 10.7457C13.4832 10.9528 13.4413 11.2465 13.2342 11.4019L10.2812 13.6179C10.2001 13.6788 10.1013 13.7117 9.99987 13.7117ZM9.99987 20.5662C7.14527 20.5662 4.90918 19.2522 4.90918 17.5747C4.90918 15.8972 7.14527 14.5832 9.99987 14.5832C12.8545 14.5832 15.0906 15.8972 15.0906 17.5747C15.0906 19.2522 12.8544 20.5662 9.99987 20.5662ZM9.99987 15.5206C8.84241 15.5206 7.76147 15.7627 6.95619 16.2022C6.25101 16.5872 5.84655 17.0874 5.84655 17.5747C5.84655 18.0621 6.25101 18.5623 6.95619 18.9472C7.76147 19.3868 8.84244 19.6288 9.99987 19.6288C11.1573 19.6288 12.2383 19.3868 13.0436 18.9472C13.7487 18.5623 14.1532 18.0621 14.1532 17.5747C14.1532 17.0874 13.7487 16.5872 13.0436 16.2022C12.2383 15.7627 11.1573 15.5206 9.99987 15.5206Z" fill="#F9FAFB"/>
<path d="M10.0007 18.9027C8.94777 18.9027 8.12305 18.3192 8.12305 17.5744C8.12305 16.8295 8.9478 16.2461 10.0007 16.2461C11.0535 16.2461 11.8783 16.8295 11.8783 17.5744C11.8783 18.3192 11.0535 18.9027 10.0007 18.9027ZM10.0007 17.1835C9.3899 17.1835 9.06038 17.4609 9.06038 17.5744C9.06038 17.6878 9.38987 17.9653 10.0007 17.9653C10.6115 17.9653 10.941 17.6878 10.941 17.5744C10.9409 17.4609 10.6114 17.1835 10.0007 17.1835Z" fill="#F9FAFB"/>
<path d="M10 17.1846C9.74116 17.1846 9.53136 16.9747 9.53136 16.7159V15.0527C9.53136 14.7938 9.7412 14.584 10 14.584C10.2589 14.584 10.4687 14.7938 10.4687 15.0527V16.7159C10.4687 16.9747 10.2589 17.1846 10 17.1846ZM13.6521 19.5905C13.5912 19.5905 13.5293 19.5786 13.4696 19.5533L10.9749 18.4972C10.7365 18.3962 10.6251 18.1212 10.726 17.8828C10.8269 17.6445 11.1021 17.5331 11.3403 17.634L13.8351 18.6901C14.0734 18.7911 14.1849 19.0661 14.0839 19.3045C14.0083 19.4831 13.8347 19.5905 13.6521 19.5905ZM6.34791 19.5905C6.16531 19.5905 5.99176 19.4832 5.9161 19.3045C5.81521 19.0661 5.92663 18.7911 6.16501 18.6901L8.65972 17.634C8.89806 17.533 9.1731 17.6445 9.27402 17.8828C9.37495 18.1212 9.26353 18.3962 9.02515 18.4972L6.53044 19.5533C6.47271 19.5779 6.41063 19.5905 6.34791 19.5905Z" fill="#F9FAFB"/>
</g>
<defs>
<clipPath id="clip0_749_18278">
<rect width="20" height="20" fill="white" transform="translate(0 0.566406)"/>
</clipPath>
</defs>
</svg>
