<svg width="60" height="60" viewBox="0 0 60 60" fill="none" xmlns="http://www.w3.org/2000/svg">
<rect width="60" height="60" rx="30" fill="#D7B875"/>
<g clip-path="url(#clip0_636_15004)">
<path d="M42.3095 43.6378C41.7917 43.6378 41.3721 43.2181 41.3721 42.7005V35.9598C41.2776 35.7222 40.9581 35.0513 40.1294 34.2793C39.1515 33.3682 37.2539 32.1312 33.7669 31.4124C33.6171 31.3815 33.4771 31.3144 33.3592 31.217C33.2413 31.1197 33.149 30.9949 33.0904 30.8537L32.0583 28.3673C31.8598 27.8891 32.0865 27.3406 32.5647 27.1422C33.043 26.9438 33.5914 27.1705 33.7898 27.6486L34.6338 29.6822C42.0592 31.3727 43.1728 35.3973 43.2174 35.5714C43.2369 35.6474 43.2467 35.7256 43.2467 35.8042V42.7005C43.2468 43.2181 42.8272 43.6378 42.3095 43.6378ZM17.2469 43.6378C16.7292 43.6378 16.3096 43.2181 16.3096 42.7005V35.8041C16.3096 35.7256 16.3194 35.6474 16.3389 35.5713C16.3836 35.3972 17.4971 31.3726 24.9224 29.6821L25.7666 27.6485C25.965 27.1704 26.5136 26.9439 26.9916 27.142C27.4698 27.3405 27.6965 27.889 27.498 28.3671L26.466 30.8535C26.4073 30.9948 26.315 31.1195 26.1971 31.2169C26.0792 31.3143 25.9392 31.3814 25.7895 31.4122C22.3024 32.1311 20.4047 33.368 19.4269 34.2791C18.5983 35.0512 18.2788 35.7221 18.1842 35.9596V42.7003C18.1843 43.2181 17.7646 43.6378 17.2469 43.6378Z" fill="#F9FAFB"/>
<path d="M29.7785 29.9498C26.5424 29.9498 22.9849 27.3722 22.3129 21.6157C21.3094 17.1002 22.4333 13.3555 25.4005 11.3364C28.0192 9.55452 31.538 9.55452 34.1567 11.3364C37.1238 13.3555 38.2477 17.1002 37.2441 21.6157C36.5721 27.3722 33.0146 29.9498 29.7785 29.9498ZM29.7785 11.8877C28.606 11.8877 27.4335 12.2207 26.4551 12.8864C24.1474 14.4568 23.3083 17.5064 24.1529 21.2533C24.1604 21.2864 24.1661 21.32 24.1699 21.3538C24.6964 25.9969 27.3662 28.0752 29.7785 28.0752C32.1908 28.0752 34.8606 25.9969 35.3872 21.3538C35.391 21.32 35.3967 21.2864 35.4042 21.2533C36.2488 17.5064 35.4097 14.4568 33.1019 12.8864C32.1236 12.2207 30.951 11.8877 29.7785 11.8877Z" fill="#F9FAFB"/>
<path d="M23.092 21.557C23.0621 21.557 23.0321 21.5555 23.0018 21.5527C22.4864 21.5034 22.1085 21.0458 22.1578 20.5304C22.3444 18.5768 23.2885 17.1874 24.9638 16.401C26.1493 15.8446 27.6865 15.597 29.7998 15.6229C31.1184 15.6389 33.0485 15.7428 34.578 16.4583C36.2667 17.2483 37.2157 18.6183 37.3983 20.5304C37.4476 21.0458 37.0697 21.5034 36.5544 21.5527C36.0396 21.6024 35.5813 21.2241 35.5321 20.7087C35.3187 18.4748 33.6513 17.5444 29.7771 17.4975C25.9116 17.4519 24.2464 18.381 24.0239 20.7087C23.9776 21.1937 23.5694 21.557 23.092 21.557ZM29.7781 36.2906C29.5801 36.2906 29.3821 36.228 29.2154 36.103L23.3094 31.671C22.8954 31.3603 22.8115 30.7727 23.1223 30.3587C23.433 29.9445 24.0205 29.8608 24.4347 30.1715L29.7781 34.1812L35.1215 30.1715C35.5354 29.8607 36.1231 29.9445 36.4339 30.3587C36.7446 30.7727 36.6609 31.3603 36.2467 31.671L30.3407 36.103C30.1784 36.2248 29.981 36.2907 29.7781 36.2906ZM29.7781 49.9995C24.0689 49.9995 19.5967 47.3715 19.5967 44.0166C19.5967 40.6616 24.0689 38.0336 29.7781 38.0336C35.4873 38.0336 39.9595 40.6616 39.9595 44.0166C39.9595 47.3715 35.4872 49.9995 29.7781 49.9995ZM29.7781 39.9084C27.4631 39.9084 25.3013 40.3925 23.6907 41.2716C22.2803 42.0415 21.4714 43.042 21.4714 44.0167C21.4714 44.9913 22.2803 45.9917 23.6907 46.7616C25.3013 47.6407 27.4632 48.1249 29.7781 48.1249C32.0929 48.1249 34.2549 47.6407 35.8655 46.7616C37.2758 45.9917 38.0847 44.9913 38.0847 44.0167C38.0847 43.042 37.2758 42.0415 35.8654 41.2716C34.2549 40.3925 32.0929 39.9084 29.7781 39.9084Z" fill="#F9FAFB"/>
<path d="M29.7787 46.6745C27.6729 46.6745 26.0234 45.5076 26.0234 44.0179C26.0234 42.5282 27.6729 41.3613 29.7787 41.3613C31.8844 41.3613 33.5339 42.5282 33.5339 44.0179C33.5339 45.5076 31.8844 46.6745 29.7787 46.6745ZM29.7787 43.2361C28.5572 43.2361 27.8981 43.791 27.8981 44.0179C27.8981 44.2448 28.5571 44.7998 29.7787 44.7998C31.0003 44.7998 31.6593 44.2448 31.6593 44.0179C31.6592 43.791 31.0002 43.2361 29.7787 43.2361Z" fill="#F9FAFB"/>
<path d="M29.7784 43.2363C29.2606 43.2363 28.841 42.8167 28.841 42.299V38.9725C28.841 38.4548 29.2607 38.0352 29.7784 38.0352C30.2961 38.0352 30.7158 38.4548 30.7158 38.9725V42.299C30.7158 42.8166 30.296 43.2363 29.7784 43.2363ZM37.0826 48.0483C36.9607 48.0483 36.8368 48.0244 36.7175 47.9739L31.728 45.8615C31.2514 45.6597 31.0284 45.1096 31.2303 44.6328C31.4322 44.1562 31.9824 43.9334 32.459 44.1351L37.4485 46.2474C37.9252 46.4493 38.1481 46.9994 37.9462 47.4761C37.7948 47.8335 37.4477 48.0483 37.0826 48.0483ZM22.4741 48.0483C22.1089 48.0483 21.7618 47.8336 21.6105 47.4761C21.4087 46.9994 21.6316 46.4493 22.1083 46.2474L27.0978 44.1351C27.5744 43.9332 28.1245 44.1561 28.3264 44.6328C28.5282 45.1096 28.3054 45.6597 27.8286 45.8615L22.8392 47.9739C22.7237 48.0229 22.5996 48.0482 22.4741 48.0483Z" fill="#F9FAFB"/>
</g>
<defs>
<clipPath id="clip0_636_15004">
<rect width="40" height="40" fill="white" transform="translate(9.77832 10)"/>
</clipPath>
</defs>
</svg>
