<svg width="60" height="60" viewBox="0 0 60 60" fill="none" xmlns="http://www.w3.org/2000/svg">
<rect width="60" height="60" rx="30" fill="#D7B875"/>
<path d="M16 35.6875V42.25H31.6341C32.6892 44.4651 34.9499 46 37.5625 46C41.1811 46 44.125 43.0561 44.125 39.4375C44.125 35.8189 41.1811 32.875 37.5625 32.875C37.1209 32.875 36.6892 32.9192 36.2715 33.0029C35.4209 29.8289 33.103 27.1843 30.0332 25.9651C31.7486 24.7801 32.875 22.8006 32.875 20.5625C32.875 16.9439 29.9311 14 26.3125 14C22.6939 14 19.75 16.9439 19.75 20.5625C19.75 22.7966 20.8723 24.7732 22.5827 25.9587C18.8264 27.4467 16 31.2036 16 35.6875ZM42.25 39.4375C42.25 42.0222 40.1472 44.125 37.5625 44.125C34.9778 44.125 32.875 42.0222 32.875 39.4375C32.875 36.8528 34.9778 34.75 37.5625 34.75C40.1472 34.75 42.25 36.8528 42.25 39.4375ZM21.625 20.5625C21.625 17.9778 23.7278 15.875 26.3125 15.875C28.8972 15.875 31 17.9778 31 20.5625C31 23.1472 28.8972 25.25 26.3125 25.25C23.7278 25.25 21.625 23.1472 21.625 20.5625ZM26.3125 27.125C30.1628 27.125 33.5659 29.8787 34.499 33.6355C32.4196 34.7378 31 36.9248 31 39.4375C31 39.7559 31.0232 40.0686 31.0671 40.375H17.875V35.6875C17.875 30.9661 21.6602 27.125 26.3125 27.125Z" fill="#F9FAFB"/>
<path d="M36.6247 42.6384L41.0375 38.2253L39.7119 36.8997L36.6247 39.9865L35.4125 38.7747L34.0869 40.1003L36.6247 42.6384Z" fill="#F9FAFB"/>
</svg>
