<svg width="20" height="21" viewBox="0 0 20 21" fill="none" xmlns="http://www.w3.org/2000/svg">
<g clip-path="url(#clip0_696_14936)">
<path d="M19.4177 3.1232C19.4165 3.1232 19.4153 3.12305 19.4141 3.12305H14.1016V2.53711C14.1016 1.56785 13.313 0.779297 12.3438 0.779297H7.65625C6.68699 0.779297 5.89844 1.56789 5.89844 2.53711V3.12305H0.585938C0.259687 3.12305 0 3.39039 0 3.70898V16.5996C0 17.5689 0.788594 18.3574 1.75781 18.3574H18.2422C19.2114 18.3574 20 17.5688 20 16.5996V3.71906C19.9776 3.33422 19.7409 3.12531 19.4177 3.1232ZM7.07031 2.53711C7.07031 2.21406 7.3332 1.95117 7.65625 1.95117H12.3438C12.6668 1.95117 12.9297 2.21406 12.9297 2.53711V3.12305H7.07031V2.53711ZM18.6011 4.29492L16.7814 9.75359C16.7427 9.87032 16.6682 9.97186 16.5684 10.0438C16.4687 10.1157 16.3488 10.1544 16.2258 10.1543H12.9297V9.56836C12.9297 9.24473 12.6674 8.98242 12.3438 8.98242H7.65625C7.33262 8.98242 7.07031 9.24473 7.07031 9.56836V10.1543H3.77426C3.65127 10.1544 3.53137 10.1157 3.43161 10.0438C3.33185 9.97188 3.2573 9.87033 3.21855 9.75359L1.39895 4.29492H18.6011ZM11.7578 10.1543V11.3262H8.24219V10.1543H11.7578ZM18.8281 16.5996C18.8281 16.9227 18.5652 17.1855 18.2422 17.1855H1.75781C1.43477 17.1855 1.17188 16.9227 1.17188 16.5996V7.31969L2.1068 10.1242C2.22312 10.4744 2.44684 10.779 2.74617 10.9948C3.0455 11.2106 3.40522 11.3265 3.77422 11.3262H7.07031V11.9121C7.07031 12.2357 7.33262 12.498 7.65625 12.498H12.3438C12.6674 12.498 12.9297 12.2357 12.9297 11.9121V11.3262H16.2257C16.5947 11.3265 16.9545 11.2106 17.2538 10.9948C17.5532 10.779 17.7769 10.4744 17.8932 10.1242L18.8281 7.31969V16.5996Z" fill="#F9FAFB"/>
</g>
<defs>
<clipPath id="clip0_696_14936">
<rect width="20" height="20" fill="white" transform="translate(0 0.779297)"/>
</clipPath>
</defs>
</svg>
