<svg width="20" height="20" viewBox="0 0 20 20" fill="none" xmlns="http://www.w3.org/2000/svg">
<g clip-path="url(#clip0_636_15236)">
<path d="M17.8158 14.0942C17.1942 13.5697 16.6946 12.9157 16.3522 12.178C16.0097 11.4403 15.8327 10.6367 15.8333 9.82333V7.5C15.8333 4.5675 13.655 2.14 10.8333 1.73333V0.833333C10.8333 0.61232 10.7455 0.400358 10.5892 0.244078C10.433 0.0877974 10.221 0 9.99999 0C9.77898 0 9.56702 0.0877974 9.41074 0.244078C9.25446 0.400358 9.16666 0.61232 9.16666 0.833333V1.73333C6.34416 2.14 4.16666 4.5675 4.16666 7.5V9.82333C4.16698 10.6383 3.98902 11.4435 3.64525 12.1824C3.30149 12.9213 2.80024 13.5761 2.17666 14.1008C1.95129 14.2951 1.79066 14.5536 1.71628 14.8417C1.6419 15.1298 1.65731 15.4337 1.76047 15.7128C1.86362 15.9919 2.04958 16.2328 2.29345 16.4033C2.53732 16.5738 2.82745 16.6657 3.12499 16.6667H16.875C17.6792 16.6667 18.3333 16.0125 18.3333 15.2083C18.3333 14.7817 18.1475 14.3783 17.8158 14.0942ZM9.99999 20C10.72 19.999 11.4177 19.7498 11.9754 19.2944C12.5331 18.839 12.9167 18.2053 13.0617 17.5H6.93832C7.08325 18.2053 7.4669 18.839 8.0246 19.2944C8.58231 19.7498 9.27997 19.999 9.99999 20Z" fill="#132476"/>
</g>
<defs>
<clipPath id="clip0_636_15236">
<rect width="20" height="20" fill="white"/>
</clipPath>
</defs>
</svg>
