<svg width="16" height="16" viewBox="0 0 16 16" fill="none" xmlns="http://www.w3.org/2000/svg">
<path d="M13.833 16H4.83301C4.00634 16 3.33301 15.3273 3.33301 14.5V7.5C3.33301 6.67267 4.00634 6 4.83301 6H13.833C14.6597 6 15.333 6.67267 15.333 7.5V14.5C15.333 15.3273 14.6597 16 13.833 16ZM4.83301 7C4.55767 7 4.33301 7.224 4.33301 7.5V14.5C4.33301 14.776 4.55767 15 4.83301 15H13.833C14.1083 15 14.333 14.776 14.333 14.5V7.5C14.333 7.224 14.1083 7 13.833 7H4.83301Z" fill="#6B7280"/>
<path d="M12.833 7C12.557 7 12.333 6.776 12.333 6.5V4C12.333 2.346 10.987 1 9.33301 1C7.67901 1 6.33301 2.346 6.33301 4V6.5C6.33301 6.776 6.10901 7 5.83301 7C5.55701 7 5.33301 6.776 5.33301 6.5V4C5.33301 1.794 7.12701 0 9.33301 0C11.539 0 13.333 1.794 13.333 4V6.5C13.333 6.776 13.109 7 12.833 7Z" fill="#6B7280"/>
<path d="M9.33333 11.3337C8.598 11.3337 8 10.7357 8 10.0003C8 9.26499 8.598 8.66699 9.33333 8.66699C10.0687 8.66699 10.6667 9.26499 10.6667 10.0003C10.6667 10.7357 10.0687 11.3337 9.33333 11.3337ZM9.33333 9.66699C9.15 9.66699 9 9.81632 9 10.0003C9 10.1843 9.15 10.3337 9.33333 10.3337C9.51666 10.3337 9.66666 10.1843 9.66666 10.0003C9.66666 9.81632 9.51666 9.66699 9.33333 9.66699Z" fill="#6B7280"/>
<path d="M9.33301 13.3333C9.05701 13.3333 8.83301 13.1093 8.83301 12.8333V11C8.83301 10.724 9.05701 10.5 9.33301 10.5C9.60901 10.5 9.83301 10.724 9.83301 11V12.8333C9.83301 13.1093 9.60901 13.3333 9.33301 13.3333Z" fill="#6B7280"/>
</svg>
