<svg width="60" height="60" viewBox="0 0 60 60" fill="none" xmlns="http://www.w3.org/2000/svg">
<rect width="60" height="60" rx="30" fill="#D7B875"/>
<path d="M32.0004 20C30.8739 19.9989 29.7528 20.1568 28.6704 20.469C28.3247 19.4132 27.7142 18.4637 26.8972 17.711C26.0801 16.9584 25.0838 16.4277 24.0033 16.1696C22.9228 15.9115 21.7942 15.9346 20.7252 16.2367C19.6562 16.5389 18.6825 17.11 17.897 17.8955C17.1115 18.681 16.5404 19.6548 16.2382 20.7238C15.9361 21.7928 15.9129 22.9214 16.171 24.0019C16.4291 25.0824 16.9598 26.0787 17.7125 26.8957C18.4652 27.7128 19.4147 28.3233 20.4704 28.669C19.7717 31.0873 19.8511 33.6641 20.6975 36.0348C21.5439 38.4054 23.1143 40.4499 25.1866 41.8789C27.2589 43.3079 29.7281 44.049 32.2448 43.9974C34.7615 43.9458 37.1983 43.1041 39.2103 41.5914C41.2223 40.0786 42.7076 37.9715 43.4561 35.5681C44.2046 33.1647 44.1783 30.5868 43.381 28.1992C42.5837 25.8116 41.0558 23.7351 39.0134 22.2637C36.971 20.7922 34.5177 20.0003 32.0004 20ZM18.0004 22.5C18.0004 21.6099 18.2643 20.7399 18.7588 19.9999C19.2533 19.2599 19.9561 18.6831 20.7783 18.3425C21.6006 18.0019 22.5054 17.9128 23.3783 18.0864C24.2512 18.2601 25.0531 18.6886 25.6824 19.318C26.3117 19.9473 26.7403 20.7491 26.914 21.6221C27.0876 22.495 26.9985 23.3998 26.6579 24.222C26.3173 25.0443 25.7405 25.7471 25.0005 26.2416C24.2605 26.736 23.3904 27 22.5004 27C21.3074 26.9986 20.1635 26.5241 19.3199 25.6805C18.4763 24.8368 18.0017 23.693 18.0004 22.5ZM32.0004 42C30.4297 42.0024 28.8805 41.6342 27.4789 40.9252C26.0772 40.2163 24.8626 39.1867 23.9337 37.92C23.0049 36.6533 22.388 35.1854 22.1332 33.6354C21.8784 32.0855 21.9929 30.4973 22.4674 29H22.5004C24.2237 28.9978 25.8757 28.3123 27.0943 27.0938C28.3128 25.8753 28.9983 24.2232 29.0004 22.5V22.467C30.3763 22.0311 31.8302 21.8982 33.2623 22.0774C34.6944 22.2566 36.0708 22.7437 37.2968 23.5052C38.5228 24.2667 39.5695 25.2845 40.3649 26.4888C41.1603 27.6932 41.6856 29.0554 41.9047 30.4819C42.1238 31.9085 42.0315 33.3655 41.6342 34.753C41.2368 36.1405 40.5439 37.4256 39.6029 38.5199C38.6619 39.6142 37.4951 40.4919 36.1828 41.0926C34.8705 41.6933 33.4437 42.0029 32.0004 42Z" fill="#F9FAFB"/>
<path d="M38 31H33V26C33 25.7348 32.8946 25.4804 32.7071 25.2929C32.5196 25.1054 32.2652 25 32 25C31.7348 25 31.4804 25.1054 31.2929 25.2929C31.1054 25.4804 31 25.7348 31 26V32C31 32.2652 31.1054 32.5196 31.2929 32.7071C31.4804 32.8946 31.7348 33 32 33H38C38.2652 33 38.5196 32.8946 38.7071 32.7071C38.8946 32.5196 39 32.2652 39 32C39 31.7348 38.8946 31.4804 38.7071 31.2929C38.5196 31.1054 38.2652 31 38 31ZM22.5 23C22.7652 23 23.0196 22.8946 23.2071 22.7071C23.3946 22.5196 23.5 22.2652 23.5 22V20C23.5 19.7348 23.3946 19.4804 23.2071 19.2929C23.0196 19.1054 22.7652 19 22.5 19C22.2348 19 21.9804 19.1054 21.7929 19.2929C21.6054 19.4804 21.5 19.7348 21.5 20V22C21.5 22.2652 21.6054 22.5196 21.7929 22.7071C21.9804 22.8946 22.2348 23 22.5 23Z" fill="#F9FAFB"/>
<path d="M22.5 26C23.0523 26 23.5 25.5523 23.5 25C23.5 24.4477 23.0523 24 22.5 24C21.9477 24 21.5 24.4477 21.5 25C21.5 25.5523 21.9477 26 22.5 26Z" fill="#F9FAFB"/>
</svg>
