<svg width="32" height="32" viewBox="0 0 32 32" fill="none" xmlns="http://www.w3.org/2000/svg">
<circle cx="16" cy="16" r="16" fill="#F3F4F6"/>
<g clip-path="url(#clip0_936_25583)">
<path d="M17.0613 15.9999L21.7801 11.281C22.0733 10.9881 22.0733 10.5128 21.7801 10.2199C21.4869 9.92671 21.0122 9.92671 20.719 10.2199L16.0001 14.9387L11.281 10.2199C10.9878 9.92671 10.5131 9.92671 10.2199 10.2199C9.92671 10.5128 9.92671 10.9881 10.2199 11.281L14.939 15.9999L10.2199 20.7187C9.92671 21.0117 9.92671 21.4869 10.2199 21.7799C10.3665 21.9262 10.5586 21.9995 10.7505 21.9995C10.9423 21.9995 11.1344 21.9262 11.281 21.7796L16.0001 17.0608L20.719 21.7796C20.8656 21.9262 21.0577 21.9995 21.2495 21.9995C21.4414 21.9995 21.6335 21.9262 21.7801 21.7796C22.0733 21.4867 22.0733 21.0114 21.7801 20.7185L17.0613 15.9999Z" fill="black"/>
</g>
<defs>
<clipPath id="clip0_936_25583">
<rect width="12" height="12" fill="white" transform="translate(10 10)"/>
</clipPath>
</defs>
</svg>
