<svg width="140" height="140" viewBox="0 0 140 140" fill="none" xmlns="http://www.w3.org/2000/svg">
<rect width="140" height="140" rx="11" fill="#F3F4F6"/>
<path d="M68.376 102.835C87.4077 102.835 102.836 87.4072 102.836 68.3755C102.836 49.3438 87.4077 33.9155 68.376 33.9155C49.3443 33.9155 33.916 49.3438 33.916 68.3755C33.916 87.4072 49.3443 102.835 68.376 102.835Z" stroke="#D1D5DB" stroke-width="6" stroke-linecap="round" stroke-linejoin="round"/>
<path d="M95.3556 93.2533C94.7698 92.6675 93.82 92.6675 93.2343 93.2533C92.6485 93.8391 92.6485 94.7888 93.2343 95.3746L105.35 107.49C105.935 108.076 106.885 108.076 107.471 107.49C108.057 106.904 108.057 105.954 107.471 105.369L95.3556 93.2533Z" stroke="#D1D5DB" stroke-width="3" stroke-linecap="round" stroke-linejoin="round"/>
</svg>
