<svg width="16" height="17" viewBox="0 0 16 17" fill="none" xmlns="http://www.w3.org/2000/svg">
<path fill-rule="evenodd" clip-rule="evenodd" d="M4.23423 6.33407C4.38425 6.1841 4.5877 6.09985 4.79983 6.09985C5.01196 6.09985 5.21541 6.1841 5.36543 6.33407L7.99983 8.96847L10.6342 6.33407C10.708 6.25767 10.7963 6.19672 10.8939 6.15479C10.9915 6.11287 11.0965 6.0908 11.2027 6.08987C11.3089 6.08895 11.4143 6.10919 11.5126 6.14942C11.6109 6.18964 11.7002 6.24904 11.7753 6.32416C11.8505 6.39927 11.9099 6.48859 11.9501 6.58691C11.9903 6.68523 12.0106 6.79057 12.0096 6.8968C12.0087 7.00302 11.9866 7.10799 11.9447 7.2056C11.9028 7.3032 11.8418 7.39148 11.7654 7.46527L8.56543 10.6653C8.41541 10.8153 8.21196 10.8995 7.99983 10.8995C7.7877 10.8995 7.58425 10.8153 7.43423 10.6653L4.23423 7.46527C4.08425 7.31525 4 7.11181 4 6.89967C4 6.68754 4.08425 6.4841 4.23423 6.33407Z" fill="#2C2E3E"/>
</svg>
