<svg width="16" height="16" viewBox="0 0 16 16" fill="none" xmlns="http://www.w3.org/2000/svg">
<path d="M11.1552 12.6075V11H11.4652C12.2922 11 12.9652 10.327 12.9652 9.5V2C12.9652 1.173 12.2922 0.5 11.4652 0.5H4.53516C3.70816 0.5 3.03516 1.173 3.03516 2V9.5C3.03516 10.327 3.70816 11 4.53516 11H4.86966C4.70666 11.97 5.58416 13.2905 5.97966 13.8255L5.77966 14.909C5.76631 14.9811 5.76899 15.0553 5.78752 15.1263C5.80605 15.1973 5.83997 15.2633 5.88687 15.3197C5.93378 15.3761 5.99252 15.4215 6.05893 15.4527C6.12535 15.4838 6.1978 15.5 6.27116 15.5H10.3127C10.384 15.4999 10.4545 15.4846 10.5194 15.4551C10.5843 15.4255 10.6422 15.3824 10.689 15.3287C10.7359 15.2749 10.7708 15.2118 10.7912 15.1434C10.8117 15.0751 10.8173 15.0032 10.8077 14.9325L10.6357 13.6715L10.7692 13.538C10.8919 13.4161 10.9891 13.2712 11.0554 13.1114C11.1217 12.9517 11.1556 12.7804 11.1552 12.6075ZM10.1552 12.6075C10.1548 12.6911 10.1216 12.7712 10.0627 12.8305L9.75316 13.1395C9.69867 13.194 9.65753 13.2603 9.63299 13.3334C9.60844 13.4064 9.60113 13.4842 9.61166 13.5605L9.73966 14.5H6.87216L7.00266 13.79C7.01568 13.72 7.01362 13.648 6.99664 13.5789C6.97965 13.5097 6.94813 13.445 6.90416 13.389C6.40266 12.752 5.72416 11.5945 5.86016 11.1355C5.95416 10.818 6.06166 10.731 6.06516 10.7105C6.06666 10.7075 6.06916 10.7055 6.07016 10.7025C6.14435 10.7227 6.22219 10.7255 6.29765 10.7108C6.37311 10.6961 6.44417 10.6642 6.50532 10.6175C6.56648 10.5709 6.61608 10.5109 6.6503 10.442C6.68452 10.3732 6.70244 10.2974 6.70266 10.2205V7.491C6.70589 7.41009 6.74031 7.33356 6.7987 7.27746C6.85709 7.22135 6.93493 7.19002 7.01591 7.19002C7.09688 7.19002 7.17472 7.22135 7.23311 7.27746C7.29151 7.33356 7.32592 7.41009 7.32916 7.491V8.216C7.32916 8.7215 7.60766 9.181 8.05616 9.415L9.73616 10.2905C9.99466 10.4255 10.1552 10.69 10.1552 10.9805V12.6075ZM10.1982 9.404L8.51866 8.5285C8.46136 8.49886 8.41333 8.45403 8.37981 8.39891C8.3463 8.34379 8.3286 8.28051 8.32866 8.216V7.491C8.32813 7.14293 8.18962 6.80927 7.9435 6.56315C7.69738 6.31703 7.36372 6.17853 7.01566 6.178C6.66759 6.17853 6.33393 6.31703 6.08781 6.56315C5.84169 6.80927 5.70319 7.14293 5.70266 7.491V9.798C5.59016 9.84844 5.4865 9.91665 5.39566 10H4.53516C4.25966 10 4.03516 9.776 4.03516 9.5V2C4.03516 1.7245 4.25966 1.5 4.53516 1.5H11.4652C11.7407 1.5 11.9652 1.7245 11.9652 2V9.5C11.9652 9.776 11.7407 10 11.4652 10H10.8572C10.6916 9.74868 10.4648 9.54358 10.1982 9.404Z" fill="#6B7280"/>
<path d="M9.94259 2.5H6.05859C5.92599 2.5 5.79881 2.55268 5.70504 2.64645C5.61127 2.74021 5.55859 2.86739 5.55859 3C5.55859 3.13261 5.61127 3.25979 5.70504 3.35355C5.79881 3.44732 5.92599 3.5 6.05859 3.5H9.94259C10.0752 3.5 10.2024 3.44732 10.2961 3.35355C10.3899 3.25979 10.4426 3.13261 10.4426 3C10.4426 2.86739 10.3899 2.74021 10.2961 2.64645C10.2024 2.55268 10.0752 2.5 9.94259 2.5ZM9.94259 4.339H6.05859C5.92599 4.339 5.79881 4.39168 5.70504 4.48545C5.61127 4.57921 5.55859 4.70639 5.55859 4.839C5.55859 4.97161 5.61127 5.09879 5.70504 5.19255C5.79881 5.28632 5.92599 5.339 6.05859 5.339H9.94259C10.0752 5.339 10.2024 5.28632 10.2961 5.19255C10.3899 5.09879 10.4426 4.97161 10.4426 4.839C10.4426 4.70639 10.3899 4.57921 10.2961 4.48545C10.2024 4.39168 10.0752 4.339 9.94259 4.339Z" fill="#6B7280"/>
</svg>
