<svg width="21" height="21" viewBox="0 0 21 21" fill="none" xmlns="http://www.w3.org/2000/svg">
<path d="M6.875 11.6605V12.4417C6.875 13.8852 7.88826 15.1399 9.21875 15.5016V17.1689H10.7812V15.5044C11.3136 15.3633 11.8045 15.0785 12.2085 14.6682C12.7995 14.0679 13.125 13.2819 13.125 12.4549C13.125 11.6659 12.7941 10.9739 12.1414 10.3981C11.6362 9.95245 10.9955 9.61855 10.376 9.29558L10.3611 9.28779C9.27401 8.72114 8.78904 8.3238 8.78904 7.46694C8.78904 6.82878 9.33229 6.30956 10 6.30956C10.6677 6.30956 11.211 6.83528 11.211 7.48146V8.26271H12.7735V7.48146C12.7735 6.24115 11.9312 5.19176 10.7812 4.85826V3.10645H9.21875V4.85771C8.06877 5.18941 7.22655 6.23324 7.22655 7.46698C7.22655 9.41601 8.73664 10.2031 9.6389 10.6734L9.65378 10.6812C10.8372 11.298 11.5625 11.7137 11.5625 12.455C11.5625 13.3163 10.847 14.044 10 14.044C9.16763 14.044 8.4375 13.2952 8.4375 12.4418V11.6605L6.875 11.6605Z" fill="#F9FAFB"/>
<path d="M10.0391 18.5762C6.99798 18.5762 4.27223 16.9881 2.77259 14.4356H5.46875V12.8731H0V18.3418H1.5625V15.4488C2.27459 16.5856 3.21157 17.571 4.33082 18.3504C6.0109 19.5203 7.98482 20.1387 10.0391 20.1387C12.7086 20.1387 15.2135 19.0979 17.0922 17.2081C18.9673 15.3219 20 12.8113 20 10.1387H18.4375C18.4375 14.7911 14.67 18.5762 10.0391 18.5762ZM18.4766 1.93553V4.82856C17.7644 3.69177 16.8275 2.70637 15.7082 1.927C14.0282 0.757065 12.0542 0.138672 10 0.138672C7.3289 0.138672 4.81771 1.17886 2.92895 3.06758C1.04019 4.95638 0 7.46757 0 10.1387H1.5625C1.5625 5.48621 5.34753 1.70117 10 1.70117C13.0411 1.70117 15.7668 3.28919 17.2665 5.84178H14.5703V7.40428H20.0391V1.93553H18.4766Z" fill="#F9FAFB"/>
</svg>
