<svg width="16" height="12" viewBox="0 0 16 12" fill="none" xmlns="http://www.w3.org/2000/svg">
<path d="M15.8983 5.68905C15.7553 5.49352 12.3496 0.901367 7.9999 0.901367C3.65018 0.901367 0.244309 5.49352 0.101528 5.68887C0.0355528 5.77925 0 5.88826 0 6.00016C0 6.11207 0.0355528 6.22108 0.101528 6.31146C0.244309 6.50699 3.65018 11.0991 7.9999 11.0991C12.3496 11.0991 15.7553 6.50696 15.8983 6.31162C15.9643 6.22128 16 6.11226 16 6.00034C16 5.88842 15.9643 5.7794 15.8983 5.68905ZM7.9999 10.0442C4.79587 10.0442 2.02084 6.99631 1.19937 5.9999C2.01978 5.00262 4.789 1.9563 7.9999 1.9563C11.2038 1.9563 13.9786 5.00368 14.8004 6.00062C13.98 6.99787 11.2108 10.0442 7.9999 10.0442Z" fill="#4B5563"/>
<path d="M7.9998 2.83496C6.25474 2.83496 4.83496 4.25474 4.83496 5.9998C4.83496 7.74487 6.25474 9.16465 7.9998 9.16465C9.74487 9.16465 11.1646 7.74487 11.1646 5.9998C11.1646 4.25474 9.74487 2.83496 7.9998 2.83496ZM7.9998 8.10968C6.83637 8.10968 5.88993 7.16321 5.88993 5.9998C5.88993 4.8364 6.8364 3.88993 7.9998 3.88993C9.16321 3.88993 10.1097 4.8364 10.1097 5.9998C10.1097 7.16321 9.16324 8.10968 7.9998 8.10968Z" fill="#4B5563"/>
</svg>
